<?xml version="1.0" encoding="UTF-8"?>
<svg width="68px" height="70px" viewBox="0 0 68 70" version="1.1" xmlns="http://www.w3.org/2000/svg" xmlns:xlink="http://www.w3.org/1999/xlink">
    <title>Questions</title>
    <g id="Mobile" stroke="none" stroke-width="1" fill="none" fill-rule="evenodd">
        <g id="Instant-Price---Roofing:-Step-3-of-5" transform="translate(-16.000000, -628.000000)" fill="#FFFFFF" fill-rule="nonzero">
            <g id="Questions" transform="translate(16.000000, 628.000000)">
                <circle id="Oval" cx="12.03125" cy="66.71875" r="3.28125"></circle>
                <path d="M12.03125,26.2499993 C5.3865741,26.2499993 0,31.6365741 0,38.28125 L6.5625,38.28125 C6.5635743,35.6055076 8.50060763,33.3234666 11.1406285,32.8877047 C13.7806494,32.4519428 16.3483009,33.9904405 17.2092068,36.5239045 C18.0701128,39.0573684 16.9714307,41.8417368 14.6125,43.1046875 C10.9105526,45.2032614 8.65909111,49.1643215 8.75,53.41875 L8.75,55.78125 L15.3125,55.78125 L15.3125,53.41875 C15.239939,51.5803568 16.1637781,49.8455458 17.7296875,48.8796875 C22.5876179,46.2696709 25.0491334,40.6910797 23.702507,35.3433445 C22.3558806,29.9956093 17.5459277,26.2480645 12.03125,26.2499993 L12.03125,26.2499993 Z" id="Path"></path>
                <circle id="Oval" cx="33.90625" cy="40.46875" r="3.28125"></circle>
                <path d="M37.1875,27.16875 C37.114939,25.3303568 38.0387781,23.5955458 39.6046875,22.6296875 C44.7869703,19.8427447 47.1931607,13.7163976 45.292679,8.14762084 C43.3921974,2.5788441 37.7427061,-0.798303992 31.9378514,0.164383341 C26.1329967,1.12707067 21.8761098,6.14710999 21.875,12.03125 L28.4375,12.03125 C28.4385743,9.35550759 30.3756076,7.07346657 33.0156285,6.6377047 C35.6556494,6.20194283 38.2233009,7.74044053 39.0842068,10.2739045 C39.9451128,12.8073684 38.8464307,15.5917368 36.4875,16.8546875 C32.7855526,18.9532614 30.5340911,22.9143215 30.625,27.16875 L30.625,29.53125 L37.1875,29.53125 L37.1875,27.16875 Z" id="Path"></path>
                <circle id="Oval" cx="55.78125" cy="66.71875" r="3.28125"></circle>
                <path d="M55.78125,26.2499993 C49.1365741,26.2499993 43.75,31.6365741 43.75,38.28125 L50.3125,38.28125 C50.3135743,35.6055076 52.2506076,33.3234666 54.8906285,32.8877047 C57.5306494,32.4519428 60.0983009,33.9904405 60.9592068,36.5239045 C61.8201128,39.0573684 60.7214307,41.8417368 58.3625,43.1046875 C54.6605526,45.2032614 52.4090911,49.1643215 52.5,53.41875 L52.5,55.78125 L59.0625,55.78125 L59.0625,53.41875 C58.989939,51.5803568 59.9137781,49.8455458 61.4796875,48.8796875 C66.3376179,46.2696709 68.7991334,40.6910797 67.452507,35.3433445 C66.1058806,29.9956093 61.2959277,26.2480645 55.78125,26.2499993 L55.78125,26.2499993 Z" id="Path"></path>
            </g>
        </g>
    </g>
</svg>