<?xml version="1.0" encoding="UTF-8"?>
<svg width="241px" height="57px" viewBox="0 0 241 57" version="1.1" xmlns="http://www.w3.org/2000/svg" xmlns:xlink="http://www.w3.org/1999/xlink">
    <title>CertainTeed</title>
    <g id="Mobile" stroke="none" stroke-width="1" fill="none" fill-rule="evenodd">
        <g id="Instant-Price---Step-1-of-5" transform="translate(-73.000000, -650.000000)">
            <g id="CertainTeed" transform="translate(73.000000, 650.000000)">
                <g id="Group" fill="#000000" fill-rule="nonzero">
                    <rect id="Rectangle" x="115.13" y="1.49" width="7.07" height="6.11"></rect>
                    <path d="M32.48,12.11 C32.28,7.87 29.3,3.41 25.24,1.58 C19.98,-0.79 13.75,-0.2 10.24,1.38 C-2.6,7.16 -2.78,28.61 9.25,35.33 C15.32,38.72 22.65,38.12 27.47,34.34 C31.44,31.23 32.73,26.96 32.73,24.74 L25.62,24.54 C25.23,26.91 24.09,28.49 22.79,29.47 C20.13,31.49 15.87,32.15 12.07,28.81 C7.39,24.7 6.29,12.89 12.13,8.02 C15.27,5.4 19.32,5.64 22.06,7.23 C23.85,8.27 25.2,10.65 25.35,12.23 L32.48,12.11 Z" id="Path"></path>
                    <path d="M40.38,25.6 C40.49,27.89 41.75,29.63 43.01,30.47 C45.35,32.03 49.9,31.81 51.56,28.04 L58.66,28.63 C58.28,30.24 56.13,34.32 51.95,36.06 C48.12,37.65 40.05,38.52 35.57,31.39 C32.12,25.91 32.59,18.22 37.48,13.17 C41.3,9.22 48.94,8.17 54.45,13.3 C57.76,16.38 58.79,20.46 58.79,25.6 L40.38,25.6 L40.38,25.6 Z M51.43,20.2 C51.38,18.58 49.73,16.75 48.6,16.12 C47.24,15.35 44.39,15.33 43.01,16.25 C42.02,16.91 40.71,18.55 40.64,20.2 L51.43,20.2 Z" id="Shape"></path>
                    <path d="M167.43,25.6 C167.53,27.89 168.8,29.63 170.06,30.47 C172.4,32.03 176.95,31.81 178.61,28.04 L185.72,28.63 C185.34,30.24 183.18,34.32 179.01,36.06 C175.18,37.65 167.11,38.52 162.63,31.39 C159.18,25.91 159.65,18.22 164.54,13.17 C168.36,9.22 176,8.17 181.51,13.3 C184.82,16.38 185.85,20.46 185.85,25.6 L167.43,25.6 L167.43,25.6 Z M178.48,20.2 C178.43,18.58 176.77,16.75 175.65,16.12 C174.29,15.35 171.44,15.33 170.06,16.25 C169.07,16.91 167.76,18.55 167.69,20.2 L178.48,20.2 Z" id="Shape"></path>
                    <path d="M193.6,25.6 C193.71,27.89 194.97,29.63 196.23,30.47 C198.57,32.03 203.12,31.81 204.78,28.04 L211.88,28.63 C211.5,30.24 209.34,34.32 205.17,36.06 C201.35,37.65 193.27,38.52 188.79,31.39 C185.34,25.91 185.81,18.22 190.7,13.17 C194.52,9.22 202.16,8.17 207.67,13.3 C210.98,16.38 212.01,20.46 212.01,25.6 L193.6,25.6 L193.6,25.6 Z M204.65,20.2 C204.6,18.58 202.95,16.75 201.82,16.12 C200.46,15.35 197.61,15.33 196.23,16.25 C195.24,16.91 193.93,18.55 193.86,20.2 L204.65,20.2 Z" id="Shape"></path>
                    <path d="M60.05,36.42 L60.05,10.96 L66.89,10.96 C66.92,11.62 67.02,12.77 67.09,13.2 C67.21,14.01 67.36,13.87 67.58,13.33 C68.44,11.27 70.68,10.24 72.42,10.24 C72.88,10.24 73.41,10.34 74.46,10.34 L74.46,16.52 C74.46,16.52 73.37,16.52 72.91,16.52 C71.68,16.52 70.67,16.75 69.49,17.8 C67.32,19.73 67.12,21.96 67.12,25.69 C67.12,26.45 67.12,36.41 67.12,36.41 L60.05,36.41 L60.05,36.42 Z" id="Path"></path>
                    <path d="M75.76,28.67 L75.76,3.18 L82.83,3.18 C82.83,3.18 82.83,7.77 82.83,10.96 L87.52,10.96 L87.52,16.02 L82.83,16.02 L82.83,28.46 C82.83,30.7 83.9,30.96 84.52,30.96 L87.64,30.96 L87.64,36.42 L82.15,36.42 C77.23,36.42 75.76,33.35 75.76,28.67 Z" id="Path"></path>
                    <path d="M105.21,26.65 C104.95,29.94 103.16,30.99 102.05,31.36 C100.7,31.81 97.94,32.02 96.66,31.2 C94.49,29.81 94.35,26.19 99.39,25.31 C100.11,25.19 102.68,24.52 103.07,24.36 C103.46,24.19 104.32,23.93 104.55,23.8 C105.04,23.52 105.21,23.64 105.21,24 L105.21,25.1 L105.21,26.65 L105.21,26.65 Z M111.86,21.22 C111.86,16.29 111.25,12.75 106.2,10.82 C103.2,9.67 99.11,9.73 96.07,10.49 C92.21,11.45 90.08,14.66 90.08,18.78 L96.1,18.78 C96.1,17.26 96.67,16.16 98.34,15.49 C99.89,14.87 102.37,15.01 103.9,15.88 C105.28,16.67 106.06,19.33 102.85,20.02 C98.38,20.99 93.41,20.91 90.28,24.3 C87.17,27.67 87.85,33.18 92.71,35.68 C94.71,36.71 97.87,36.98 100.28,36.63 C102.76,36.28 104.09,35.13 104.85,34.07 C105.01,33.84 105.29,33.84 105.31,34.14 C105.34,34.67 105.7,35.78 106,36.41 L112.97,36.41 C112.38,35.88 111.85,34.83 111.85,33.53 L111.85,21.22 L111.86,21.22 Z" id="Shape"></path>
                    <rect id="Rectangle" x="115.13" y="10.96" width="7.07" height="25.46"></rect>
                    <path d="M147.84,20.05 C147.84,20.81 147.84,36.42 147.84,36.42 L140.77,36.42 L140.77,23.13 C140.77,21.8 140.88,19.09 139.49,17.7 C138.2,16.41 135.18,16.66 134.06,17.62 C131.98,19.4 132.12,22.11 132.12,25.7 C132.12,26.46 132.12,36.42 132.12,36.42 L125.05,36.42 L125.05,10.96 L131.89,10.96 C131.92,11.62 132.05,12.67 132.12,13.1 C132.19,13.55 132.29,13.72 132.58,13.33 C133.34,12.31 134.71,11.35 135.74,10.99 C138.05,10.19 141.43,10.39 143.7,11.7 C146.46,13.29 147.84,16.42 147.84,20.05 Z" id="Path"></path>
                    <polygon id="Path" points="158.47 8 158.47 36.42 151 36.42 151 8 140.47 8 140.47 1.75 168.76 1.75 168.76 8"></polygon>
                    <path d="M238.79,36.42 L231.88,36.42 C231.86,35.77 231.73,34.8 231.63,34.42 C231.57,34.18 231.33,34.26 231.22,34.37 C230.48,35.11 228.83,36.24 227.53,36.64 C223.79,37.81 220.65,36.88 218.86,35.68 C210.91,30.38 211.87,17.94 217.3,12.77 C221.47,8.8 228.18,9.46 230.33,11.98 C230.71,12.42 231.09,12.77 231.19,12.95 C231.42,13.37 231.72,13.44 231.72,12.98 L231.72,1.48 L238.79,1.48 L238.79,36.42 L238.79,36.42 Z M222.21,17.45 C219.79,19.78 219.45,26.77 222.47,29.69 C224.35,31.5 227.47,31.45 229.48,29.69 C232.21,27.28 232.5,20.11 229.84,17.45 C227.65,15.25 224.44,15.3 222.21,17.45 Z" id="Shape"></path>
                </g>
                <polygon id="Path" fill="#000000" fill-rule="nonzero" points="181.36 42.47 178.8 42.47 178.8 40.87 185.65 40.87 185.65 42.47 183.08 42.47 183.08 50.66 181.37 50.66 181.37 42.47"></polygon>
                <polygon id="Path" fill="#000000" fill-rule="nonzero" points="185.16 45.67 188.52 45.67 188.52 47.26 185.16 47.26"></polygon>
                <path d="M193.78,45.67 L199.83,45.67 L199.83,45.88 C199.83,48.67 197.51,50.85 194.93,50.85 C192.27,50.85 189.95,48.69 189.95,45.76 C189.95,42.88 192.26,40.67 194.88,40.67 C197.2,40.67 198.9,42.34 199.37,43.74 L197.32,43.74 C196.92,43.09 196.07,42.37 194.84,42.37 C192.76,42.37 191.67,44.25 191.67,45.78 C191.67,47.28 192.73,49.17 194.94,49.17 C196.08,49.17 197.14,48.51 197.69,47.27 L193.8,47.27 L193.8,45.67 L193.78,45.67 Z" id="Path" fill="#000000" fill-rule="nonzero"></path>
                <path d="M213.41,46.18 L214.73,46.18 C216.23,46.18 216.32,47.29 216.32,47.68 C216.32,48.66 215.4,48.96 214.69,48.96 L213.4,48.96 L213.4,46.18 L213.41,46.18 Z M211.69,50.65 L214.59,50.65 C215.18,50.65 216.28,50.58 216.98,50.07 C217.54,49.65 218.13,48.92 218.13,47.74 C218.13,46.09 217.15,45.55 216.54,45.31 C216.83,45.14 217.57,44.68 217.57,43.45 C217.57,42.77 217.25,42.06 216.78,41.62 C215.98,40.87 214.95,40.87 213.93,40.87 L211.68,40.87 L211.68,50.65 L211.69,50.65 Z M213.41,42.47 L214.55,42.47 C215.52,42.47 215.87,42.94 215.87,43.52 C215.87,44.57 214.79,44.57 214.39,44.57 L213.41,44.57 L213.41,42.47 L213.41,42.47 Z" id="Shape" fill="#000000" fill-rule="nonzero"></path>
                <polygon id="Path" fill="#000000" fill-rule="nonzero" points="227.89 40.87 229.6 40.87 229.6 50.66 227.89 50.66"></polygon>
                <path d="M205.65,40.67 C202.84,40.67 200.56,42.95 200.56,45.76 C200.56,48.57 202.84,50.85 205.65,50.85 C208.46,50.85 210.74,48.57 210.74,45.76 C210.74,42.95 208.47,40.67 205.65,40.67 Z M205.65,49.16 C203.78,49.16 202.26,47.63 202.26,45.77 C202.26,43.89 203.78,42.37 205.65,42.37 C207.52,42.37 209.05,43.89 209.05,45.77 C209.05,47.63 207.53,49.16 205.65,49.16 Z" id="Shape" fill="#000000" fill-rule="nonzero"></path>
                <path d="M218.04,50.66 L221.9,40.87 L223.24,40.87 L227.12,50.66 L225.33,50.66 L224.39,48.18 L220.79,48.18 L219.84,50.66 L218.04,50.66 Z M222.56,43.42 L222.54,43.42 L221.33,46.59 L223.79,46.59 L222.56,43.42 Z" id="Shape" fill="#000000" fill-rule="nonzero"></path>
                <polygon id="Path" fill="#000000" fill-rule="nonzero" points="231.31 40.86 233.06 40.86 237.08 47.25 237.08 40.86 238.79 40.86 238.79 50.65 237.17 50.65 233.03 43.88 233.03 50.65 231.31 50.65 231.31 40.86"></polygon>
                <path d="M152.64,47.85 C152.73,48.82 153.6,49.16 154.13,49.16 C154.82,49.16 155.58,48.66 155.58,47.92 C155.58,46.92 154.81,46.66 153.64,46.19 C152.92,45.9 151.26,45.51 151.26,43.45 C151.26,41.89 152.58,40.66 154.16,40.66 C155.25,40.66 157,41.45 157.09,43.45 L155.37,43.45 C155.29,42.57 154.58,42.35 154.11,42.35 C153.57,42.35 153,42.76 153,43.34 C153,44.19 153.76,44.45 154.71,44.79 C155.48,45.05 157.32,45.6 157.32,47.73 C157.32,49.85 155.59,50.86 154.12,50.86 C152.91,50.86 151.01,50.01 150.91,47.86 L152.64,47.86 L152.64,47.85 Z" id="Path" fill="#000000" fill-rule="nonzero"></path>
                <g id="Group" transform="translate(157.000000, 40.000000)" fill="#000000" fill-rule="nonzero">
                    <polygon id="Path" points="10 0.87 11.71 0.87 11.71 10.66 10 10.66"></polygon>
                    <path d="M0.14,10.65 L4,0.86 L5.33,0.86 L9.21,10.65 L7.42,10.65 L6.48,8.17 L2.88,8.17 L1.93,10.65 L0.14,10.65 Z M4.67,3.42 L4.65,3.42 L3.44,6.59 L5.9,6.59 L4.67,3.42 Z" id="Shape"></path>
                    <polygon id="Path" points="13.41 0.86 15.16 0.86 19.19 7.25 19.19 0.86 20.9 0.86 20.9 10.65 19.28 10.65 15.14 3.88 15.14 10.65 13.42 10.65 13.42 0.86"></polygon>
                </g>
                <line x1="0.31" y1="56.07" x2="240.66" y2="56.07" id="Path" stroke="#000000" stroke-width="1.75"></line>
            </g>
        </g>
    </g>
</svg>