<?xml version="1.0" encoding="UTF-8"?>
<svg width="48px" height="71px" viewBox="0 0 48 71" version="1.1" xmlns="http://www.w3.org/2000/svg" xmlns:xlink="http://www.w3.org/1999/xlink">
    <title>Gas</title>
    <g id="Mobile" stroke="none" stroke-width="1" fill="none" fill-rule="evenodd">
        <g id="Instant-Price---Roofing:-Step-3-of-5" transform="translate(-29.000000, -638.000000)" fill="#242423" fill-rule="nonzero">
            <path d="M76.2374373,682.659643 C75.2229446,678.757748 71.0088978,672.202564 68.5897227,668.690858 C68.6677606,669.081048 69.4481397,672.046488 69.6822534,673.763322 C70.0724429,676.494649 69.214026,678.991862 67.1070026,681.098885 C65.7023203,682.503567 64.1415622,683.752174 62.3466904,684.766667 C59.3032121,686.405463 56.2597339,688.122297 53.1382177,689.683055 C50.7190427,690.931661 49.3143604,692.648495 48.9241709,694.989632 C48.4559435,697.877035 48.7680951,700.764437 49.626512,703.651839 C49.9386637,704.74437 50.2508153,705.914939 50.5629669,707.007469 C47.5194886,703.651839 44.788162,700.29621 42.9932902,696.316276 C40.6521531,691.243813 42.4470249,685.781159 47.9096781,682.42553 C51.0311943,680.474582 54.0746726,678.523634 57.2742266,676.572687 C62.8149178,673.295095 66.6387751,665.101115 63.6733348,658.623969 C61.1761218,653.161315 57.3522645,648.479041 52.123725,644.577146 C49.0802467,642.314047 46.1928443,639.97291 42.7591765,638.1 C43.149366,638.958417 45.8806926,645.435563 45.8806926,648.244928 C45.8806926,652.927202 44.0858208,657.141249 41.4325321,661.19922 C38.5451296,665.569342 35.1114619,669.783389 32.3020973,674.23155 C26.3712166,683.752174 28.8684295,694.443367 38.4670917,701.544816 C42.1348732,704.276143 46.2708822,706.383166 50.7970806,708.1 C50.8751185,708.1 50.9531564,708.1 51.1092322,708.1 C52.2017629,704.432219 55.0891653,702.169119 59.1471363,700.686399 C61.3321977,699.90602 63.3611832,698.969565 65.4682066,698.111148 C67.9654195,697.096656 70.2285187,695.691973 72.3355421,694.209253 C74.3645276,692.726533 77.7981954,688.512486 76.2374373,682.659643 Z" id="Gas"></path>
        </g>
    </g>
</svg>