<?xml version="1.0" encoding="utf-8"?>
<!-- Generator: Adobe Illustrator 20.1.0, SVG Export Plug-In . SVG Version: 6.00 Build 0)  -->
<svg version="1.1" id="Layer_1" xmlns="http://www.w3.org/2000/svg" xmlns:xlink="http://www.w3.org/1999/xlink" x="0px" y="0px"
	 viewBox="0 0 197 300" style="enable-background:new 0 0 197 300;" xml:space="preserve">
<style type="text/css">
	.st0{fill:#1C1C1C;}
	.st1{fill:#FFFFFF;}
</style>
<g>
	<path id="node1" class="st0" d="M94.3,5.6C73.4,33.5,69.7,40.1,68.8,52C68,62.3,72.9,75.1,80.2,82c3.4,3.2,18.3,14.3,30.1,22.3
		c15.8,10.7,20.3,20.2,15.2,31.5c-1.9,4.1-1.9,4.4-0.3,5.7c2.1,1.6,0.7,3.3,18.3-21.3C160.4,96.7,161,95.3,161,81.9
		c0-9.3-0.3-11.2-2.6-16.1c-4.6-9.8-5.8-10.8-46.9-40.7c-4.1-3-8.5-6.6-9.7-8.1c-2.5-2.8-3-7.9-1.2-11.2c0.7-1.5,0.7-2.4-0.2-3.5
		C98.7,0.2,98.2,0.5,94.3,5.6z"/>
	<path id="node2" class="st0" d="M67,100.4c-9.5,12.9-11.8,17.7-12.3,25.2c-0.3,5,0,7.1,2,11.5c3.2,6.9,6.2,9.8,22.9,22
		c7.7,5.6,14.5,11,15,12.1c0.6,1,0.8,3,0.4,4.4c-0.5,2.3,1.4,5.2,3.6,5.3c1.2,0,17.2-23.1,18.5-26.8c1.8-5,1.7-12.9-0.2-18.5
		c-2.1-6.1-7.5-11.5-21.9-21.7c-16.1-11.5-17.9-13.3-17.1-17.2c0.4-2.3,0.2-3.4-1.1-4.4c-1-0.7-2-1.4-2.3-1.4
		C74.2,90.9,70.8,95.2,67,100.4z"/>
	<path id="node3" class="st0" d="M41,187.9c-1,1.6-3.5,10.4-3.5,12.2c0,1.6,1.4,1.8,14.9,1.8h14.8l1.6,4.2c0.9,2.4,2.2,6.4,2.9,9
		l1.2,4.8h25.2h25.3l2.8-9l2.8-9h14.7c8.1,0,14.9-0.4,15.2-0.8c0.3-0.5-0.4-3.9-1.5-7.5l-2-6.7H98.5C63,186.9,41.4,187.3,41,187.9z"
		/>
	<path id="node4" class="st0" d="M6.5,264.9v34h19.3c14.9,0,20.6-0.4,24.8-1.6c15.1-4.5,18.1-23.1,5.1-32l-3-2.1l3.1-3.2
		c3.1-3,3.2-3.5,3.2-11.1c0-7.6-0.1-8-3.4-11.4c-5.5-5.7-9.8-6.6-30.8-6.6H6.5V264.9z M42.3,246.5c1.8,1.2,2.2,2.4,2,5.2
		c-0.4,5.1-3.1,6.3-14.2,6l-8.9-0.3l0.1-5.8c0-3.1,0.1-5.9,0.1-6.2c0.1-0.3,4.3-0.5,9.4-0.5C37.7,244.9,40.6,245.3,42.3,246.5z
		 M45.8,273.2c5.2,3.4,2.5,10.7-4.5,12.1c-3.7,0.7-17.1,0.8-19,0.1c-0.9-0.4-1.3-2.4-1.1-7c0-3.6,0.2-6.8,0.2-7.1
		c0.1-0.3,5-0.5,10.9-0.3C40.5,271.3,43.8,271.8,45.8,273.2z"/>
	<path id="node5" class="st0" d="M70.2,231.6c-0.4,0.3-0.7,15.7-0.7,34V299l21.3-0.3c19.2-0.3,21.6-0.5,25.9-2.5
		c6.2-2.8,10-8.5,10.1-15c0.1-7.8-1.9-12.1-7-15.3c-4.2-2.7-4.3-2.9-2.4-4c3.5-1.8,6.4-8.7,5.9-13.9c-0.8-8.6-5.2-13.7-13.7-16.1
		C105.6,230.8,71.2,230.5,70.2,231.6z M106,247.4c3.1,3.1,3.1,4.9,0,8c-2.2,2.3-3.2,2.5-12,2.5h-9.5v-6.5v-6.5H94
		C102.8,244.9,103.8,245.1,106,247.4z M108.6,272.3c2.8,1.2,4.1,5.4,2.7,8.4c-1.9,3.8-7.3,5.3-17.7,5l-8.6-0.3l-0.3-7.4l-0.3-7.4
		l11.3,0.5C101.9,271.4,107.7,271.9,108.6,272.3z"/>
	<path id="node6" class="st0" d="M133,232.2c-0.3,0.7-0.4,15.8-0.3,33.7l0.3,32.5l18.5,0.3c22.2,0.3,27.7-0.6,33-5.5
		c9.1-8.1,7.6-22.9-2.8-28.2c-3.5-1.8-3.5-1.9-1.4-3c5-2.6,7.8-11,6.1-17.6c-1.4-5.2-4.2-8.2-10.4-11.1c-4.7-2.2-6.1-2.4-23.8-2.4
		C138,230.9,133.3,231.2,133,232.2z M169.5,246.9c2.3,2.3,2.6,5.8,0.6,8.6c-1.2,1.6-2.9,2-11.5,2.2l-10.1,0.4v-6.6v-6.6h9.5
		C166.2,244.9,167.8,245.2,169.5,246.9z M169.7,271.9c6.1,1.7,7.6,6.9,3.2,11.1c-2.3,2.1-3.6,2.4-13.5,2.7l-10.9,0.4v-7.6v-7.6h8.8
		C162.1,270.9,167.7,271.4,169.7,271.9z"/>
	<g transform="translate(0.000000,300.000000) scale(0.100000,-0.100000)">
		<path id="node9" class="st1" d="M845,486.4v-65h95c88,0,98,2,120,25c14,13,25,31,25,40s-11,27-25,40c-22,23-32,25-120,25h-95
			V486.4z"/>
		<path id="node10" class="st1" d="M847,220.4l3-74l86-3c104-3,158,12,177,50c14,30,1,72-27,84c-9,4-67,9-129,12l-113,5L847,220.4z"
			/>
		<path id="node11" class="st1" d="M1485,485.4v-66l101,4c86,2,103,6,115,22c20,28,17,63-6,86c-17,17-33,20-115,20h-95V485.4z"/>
		<path id="node12" class="st1" d="M1485,215.4v-76l109,4c99,3,112,6,135,27c44,42,29,94-32,111c-20,5-76,10-124,10h-88V215.4z"/>
		<path id="node13" class="st1" d="M214,546.4c0-3-1-31-1-62l-1-58l89-3c111-3,138,9,142,60c5,55-21,68-135,68
			C257,551.4,215,549.4,214,546.4z"/>
		<path id="node14" class="st1" d="M214,287.4c0-3-2-35-2-71c-2-46,2-66,11-70c19-7,153-6,190,1c70,14,97,87,45,121
			c-20,14-53,19-135,22C264,292.4,215,290.4,214,287.4z"/>
	</g>
</g>
</svg>
