<svg version="1.1" x="0px" y="0px" viewBox="0 0 1656 714.3">

	<g id="layer1" transform="translate(0,-962.36218)">
		<g id="g3795" transform="matrix(0.50347354,0,0,0.50347354,-28.889226,606.41489)">
			<path id="path3002" class="st0" d="M2335.1,1827.7c-646.3,0-1239.8,0-1886.1,0c-159.8,13.8-293.8-79.5-309.3-248.8
			c-23.3-206.5-46.7-413-70-619.5c-6.9-121.8,60.5-237.6,200.4-240.2c938.3,82.9,1824.8,165.9,2763.1,248.8
			c177.1,8.6,308.4,121,292,283.4c-6.9,94.2-14.7,189.2-21.6,283.4c-13,184-169.3,296.4-274.8,292c-117.5,0-201.3,0-318.8,0
			c10.4,132.2,87.3,208.2,165.9,283.4C2718.8,2094.7,2550.3,2041.1,2335.1,1827.7z"/>
			<g id="text3004" transform="scale(0.94350526,1.0598775)">
				<path id="path3777" class="st1" d="M345.1,1090.9h110.6v125.3h121v-125.3h111.5v359.4H576.7v-146h-121v145.2H345.1V1090.9z"/>
				<path id="path3779" class="st1" d="M743.5,1320.8c0-39.7,13-72.6,39.7-98.5c26.8-25.9,63.1-38.9,108.9-38.9
				c51.8,0,91.6,14.7,118.4,44.9c21.6,24.2,32,54.4,32,89.9c0,39.7-13,72.6-39.7,98.5c-26.7,25.9-63.1,38-109.7,38
				c-41.5,0-76-10.4-101.1-32C759.9,1397.7,743.5,1363.1,743.5,1320.8L743.5,1320.8z M843.7,1319.9c0,23.3,4.3,40.6,13.8,51.8
				c9.5,11.2,21.6,16.4,35.4,16.4c14.7,0,25.9-5.2,35.4-16.4c9.5-11.2,13.8-28.5,13.8-52.7c0-22.5-4.3-38.9-13.8-50.1
				c-9.5-11.2-20.7-16.4-34.6-16.4c-14.7,0-26.8,5.2-36.3,16.4C848.9,1280.2,843.7,1297.4,843.7,1319.9L843.7,1319.9z"/>
				<path id="path3781" class="st1" d="M1091.6,1189.4h93.3v38c13-15.6,26.8-26.8,40.6-33.7c13.8-6.9,30.2-10.4,49.2-10.4
				c20.7,0,37.2,3.5,49.2,11.2c12.1,7.8,21.6,18.1,29.4,32.8c15.6-17.3,30.2-28.5,43.2-34.6s28.5-9.5,47.5-9.5
				c27.6,0,50.1,8.6,65.7,25.1c15.6,16.4,23.3,42.3,23.3,77.8v163.3h-100.1v-148.6c0-12.1-2.6-20.7-6.9-25.9
				c-6.9-8.6-14.7-13.8-25.1-13.8c-12.1,0-21.6,4.3-28.5,13c-6.9,8.6-10.4,22.5-10.4,40.6v133.9h-100.2v-143.4
				c0-11.2-0.9-19-1.7-23.3c-1.7-6.9-6-12.1-11.2-15.6c-5.2-4.3-11.2-6-18.1-6c-11.2,0-20.7,4.3-28.5,13
				c-7.8,8.6-11.2,22.5-11.2,42.3v133.1h-100.2v-259.2h0.7V1189.4z"/>
				<path id="path3783" class="st1" d="M1881.3,1344.1h-199.6c1.7,16.4,6,27.6,13,35.4c9.5,11.2,22.5,17.3,38,17.3
				c9.5,0,19-2.6,27.6-7.8c5.2-3.5,11.2-8.6,17.3-16.4l98.5,8.6c-14.7,25.9-32.8,44.9-54.4,56.2s-51.8,17.3-91.6,17.3
				c-34.6,0-61.3-5.2-81.2-14.7c-19.9-9.5-36.3-25.1-49.2-46.7c-13-20.7-19.9-45.8-19.9-74.3c0-40.6,13-73.4,38.9-98.5
				c25.9-25.1,62.2-38,108-38c37.2,0,66.5,6,88.1,17.3c21.6,11.2,38,27.6,49.2,49.2c11.2,21.6,17.3,49.2,17.3,83.8L1881.3,1344.1
				L1881.3,1344.1z M1780.2,1296.6c-1.7-19-6.9-32.8-15.6-41.5c-8.6-8.6-19.9-12.1-32.8-12.1c-15.6,0-28.5,6-38,19
				c-6,7.8-9.5,19.9-11.2,35.4h97.6V1296.6z"/>
				<path id="path3785" class="st1" d="M1915,1331.1l105.4-6.9c2.6,17.3,6.9,30.2,13.8,38.9c11.2,14.7,27.6,21.6,49.2,21.6
				c15.6,0,27.6-3.5,36.3-11.2c8.6-7.8,13-16.4,13-25.9s-4.3-17.3-12.1-25.1s-26.8-14.7-57-20.7c-48.4-11.2-82.9-25.1-103.7-43.2
				s-31.1-41.5-31.1-69.1c0-18.1,5.2-36.3,16.4-52.7c10.4-16.4,26.8-29.4,48.4-38.9s51-13.8,88.1-13.8c45.8,0,81.2,8.6,104.5,25.9
				c23.3,17.3,38,44.1,43.2,81.2l-104.5,6c-2.6-16.4-8.6-27.6-17.3-35.4c-8.6-7.8-21.6-11.2-37.2-11.2c-13,0-22.5,2.6-29.4,7.8
				s-9.5,12.1-9.5,19.9c0,6,2.6,11.2,7.8,15.6c5.2,4.3,17.3,9.5,37.2,13c48.4,10.4,82.9,20.7,104.5,32
				c21.6,11.2,36.3,24.2,45.8,39.7c9.5,15.6,14.7,33.7,14.7,53.6c0,23.3-6,44.1-19,63.9c-13,19.9-30.2,34.6-53.6,44.1
				c-22.5,10.4-51.8,14.7-86.4,14.7c-61.3,0-103.7-12.1-127-35.4C1932.3,1395.9,1918.5,1367.4,1915,1331.1L1915,1331.1z"/>
				<path id="path3787" class="st1" d="M2410.1,1090.9v99.4h54.4v72.6h-54.4v92.4c0,11.2,0.9,18.1,3.5,22.5c3.5,5.2,8.6,8.6,17.3,8.6
				c7.8,0,17.3-1.7,31.1-6l7.8,69.1c-25.1,5.2-47.5,7.8-69.1,7.8c-25.1,0-43.2-3.5-55.3-9.5s-20.7-16.4-25.9-29.4
				s-8.6-33.7-8.6-63.1v-91.6h-37.2v-72.6h37.2v-47.5L2410.1,1090.9z"/>
				<path id="path3789" class="st1" d="M2603.6,1274.1l-95-10.4c3.5-16.4,8.6-29.4,15.6-38.9c6.9-9.5,16.4-18.1,29.4-25.1
				c9.5-5.2,21.6-8.6,38-12.1c16.4-2.6,33.7-4.3,51.8-4.3c30.2,0,53.6,1.7,71.7,5.2s32.8,10.4,44.9,20.7
				c8.6,7.8,15.6,18.1,19.9,31.1c5.2,13.8,7.8,25.9,7.8,38.9v114.9c0,12.1,0.9,21.6,2.6,28.5c1.7,6.9,5.2,15.6,10.4,26.8h-93.3
				c-3.5-6.9-6-12.1-7.8-15.6c-0.9-3.5-2.6-8.6-3.5-16.4c-13,13-25.9,21.6-38.9,26.8c-17.3,6.9-38,10.4-61.3,10.4
				c-31.1,0-54.4-6.9-70.8-21.6c-16.4-14.7-24.2-32-24.2-53.6c0-19.9,6-36.3,17.3-48.4c11.2-12.1,32.8-22.5,63.9-28.5
				c37.2-7.8,61.3-13,72.6-15.6c11.2-2.6,22.5-6.9,35.4-12.1c0-12.1-2.6-20.7-7.8-25.9s-13.8-7.8-26.8-7.8
				c-16.4,0-28.5,2.6-37.2,7.8C2612.3,1255.1,2607.1,1262.9,2603.6,1274.1L2603.6,1274.1z M2690,1326c-13.8,5.2-27.6,9.5-43.2,13
				c-19.9,5.2-32.8,10.4-38.9,15.6c-5.2,5.2-8.6,11.2-8.6,18.1c0,7.8,2.6,13.8,7.8,19s13.8,7.8,24.2,7.8c11.2,0,21.6-2.6,31.1-7.8
				s16.4-12.1,20.7-19.9c4.3-7.8,6-18.1,6-30.2V1326L2690,1326L2690,1326z"/>
				<path id="path3791" class="st1" d="M2849,1189.4h93.3v42.3c8.6-18.1,18.1-31.1,27.6-38s21.6-10.4,35.4-10.4
				c14.7,0,31.1,4.3,48.4,13.8l-31.1,70.8c-12.1-5.2-20.7-7.8-27.6-7.8c-13,0-23.3,5.2-30.2,16.4c-10.4,15.6-15.6,43.2-15.6,85.5
				v87.3H2849L2849,1189.4L2849,1189.4z"/>
				<path id="path3793" class="st1" d="M3052.1,1377.8l99.4-9.5c4.3,12.1,9.5,19.9,17.3,25.1c7.8,5.2,17.3,7.8,29.4,7.8
				c13,0,23.3-2.6,31.1-8.6c6-4.3,8.6-9.5,8.6-15.6c0-6.9-3.5-13-11.2-16.4c-5.2-2.6-19.9-6-43.2-10.4c-34.6-6-58.8-11.2-71.7-16.4
				c-13.8-5.2-25.1-13.8-33.7-25.9c-9.5-12.1-13.8-25.9-13.8-41.5c0-17.3,5.2-32,14.7-44.1s23.3-21.6,41.5-27.6
				c17.3-6,40.6-9.5,70-9.5c31.1,0,53.6,2.6,69.1,6.9c15.6,4.3,26.8,12.1,37.2,22.5c9.5,10.4,18.1,23.3,24.2,40.6l-94.2,9.5
				c-2.6-8.6-6.9-14.7-12.1-18.1c-7.8-5.2-17.3-7.8-28.5-7.8s-19.9,1.7-24.2,6c-5.2,4.3-7.8,8.6-7.8,14.7s3.5,11.2,9.5,14.7
				c6.9,3.5,20.7,6,42.3,8.6c32.8,3.5,57.9,8.6,74.3,15.6s28.5,16.4,37.2,28.5c8.6,12.1,13,25.9,13,40.6c0,14.7-4.3,29.4-13.8,44.1
				c-8.6,13.8-23.3,25.9-43.2,33.7c-19.9,8.6-45.8,13-79.5,13c-47.5,0-81.2-6.9-102-20.7C3071.1,1421.9,3058.1,1402.8,3052.1,1377.8
				L3052.1,1377.8z"/>
			</g>
		</g>
	</g>
</svg>
