<?xml version="1.0" encoding="utf-8"?>
<!-- Generator: Adobe Illustrator 19.0.0, SVG Export Plug-In . SVG Version: 6.00 Build 0)  -->
<svg version="1.1" id="Layer_1" xmlns="http://www.w3.org/2000/svg" xmlns:xlink="http://www.w3.org/1999/xlink" x="0px" y="0px"
	 viewBox="-220 381.5 170.5 31.5" style="enable-background:new -220 381.5 170.5 31.5;" xml:space="preserve">
<title>monarchy-brand-logo-01</title>
<g id="Mobile">
	<g id="Home" transform="translate(-121.000000, -5658.000000)">
		<g id="monarchy-brand-logo-01" transform="translate(121.000000, 5658.000000)">
			<g id="Group" transform="translate(0.000000, 31.492063)">
				<path id="Path" d="M-195.7,352.1V364c0,1.6,0.8,1.6,1.5,1.6v0.3h-6.4v-0.3c0.7,0,1.4-0.1,1.4-1.5v-12.6l-8.1,14.2l-9.5-14.2
					v10.2c0,2.5,1.7,3.9,2.7,3.9v0.3h-5.9v-0.3c1,0,2.8-1.4,2.8-3.9V352c0-1.4-1.6-1.4-1.9-1.4v-0.4h5.6l8,11.8l6.7-11.8h4.7v0.3
					C-195.8,350.6-195.7,351.5-195.7,352.1z"/>
				<path id="Shape" d="M-173.8,358.1c0,5.3-3.9,8-9.8,8c-6.1,0-9.8-2.6-9.8-8c0-4.3,3.1-8,9.8-8
					C-176.7,350.1-173.8,353.9-173.8,358.1z M-177.5,358c0-4.9-1.6-7.5-6-7.5c-4.5,0-6.1,2.6-6.1,7.5c0,5.6,1.5,7.7,6.1,7.7
					C-178.8,365.7-177.5,363.2-177.5,358z"/>
				<path id="Path_1_" d="M-152,350.3v0.3c-0.9,0-2.8,1.3-2.8,3.8V366h-1.7l-13.9-13.2v9.1c0,2.5,1.7,3.7,2.7,3.7v0.3h-5.9v-0.3
					c1,0,2.8-1.2,2.8-3.6v-9.5c0,0-1.8-1.8-2.8-1.8v-0.4h5.5l13.1,12.2v-8.2c0-2.4-1.7-3.8-2.8-3.8v-0.3h5.9v0.1H-152z"/>
				<path id="Shape_1_" d="M-132.5,365.6v0.3h-5.9v-0.3c1,0,1.1-0.5,0.3-1.8l-1.9-3.3h-8.4c-2.2,4.2-0.2,5.2,0.8,5.2v0.3h-5.6v-0.3
					c1.3,0,4.2-4.9,4.2-4.9l5.5-10.4h1.5l7,12.6C-134,364.1-133.2,365.6-132.5,365.6z M-140.1,360.2l-4.1-7.4l-3.8,7.4H-140.1z"/>
				<path id="Shape_2_" d="M-108.2,365.6v0.3h-5.5c-1.4-1.7-3.5-5.2-4.9-7.4h-8v5.6c0,1.6,0.9,1.5,1.4,1.5v0.3h-6.4v-0.3
					c0.5,0,1.5,0.1,1.5-1.5v-12c0-1.6-1.1-1.5-1.5-1.5v-0.3h13.3c1.3,0,6.2-0.2,6.2,4.1c0,2.6-3,3.6-3,3.6c1.7,2.7,3.8,6.7,6.1,7.6
					C-108.7,365.5-108.2,365.6-108.2,365.6z M-115.7,354.4c0-2-0.6-3.8-2.4-3.8h-7.5c-0.5,0-0.8,0.4-0.8,1.5v6.1h7.8
					C-118.6,358.1-115.7,358.3-115.7,354.4z"/>
				<path id="Path_2_" d="M-91.5,359.9l0.2,4.2c0,0-1,2.1-8.7,2.1c-6.9,0-10.1-2.7-10.1-8c0-7.3,7.1-7.9,10.1-7.9c6.2,0,8.7,2,8.7,2
					l-0.3,4.2H-92c-0.1-3.3-5.3-5.9-8.1-5.9c-5.9,0-6.4,4-6.4,7.6c0,4.3,0.9,7.6,6.4,7.6c4.2,0,8-2.9,8.1-5.9L-91.5,359.9
					L-91.5,359.9z"/>
				<path id="Path_3_" d="M-71.7,352.1v12c0,1.3,0.7,1.5,1.5,1.5v0.3h-6.4v-0.3c0.8,0,1.5-0.2,1.5-1.5v-5.9h-10.3v5.9
					c0,1.3,0.7,1.5,1.5,1.5v0.3h-6.4v-0.3c0.8,0,1.5-0.2,1.5-1.5v-12c0-1.3-0.7-1.5-1.5-1.5v-0.3h6.4v0.3c-0.9,0-1.5,0.2-1.5,1.5
					v5.8h10.3v-5.8c0-1.3-0.7-1.5-1.5-1.5v-0.3h6.4v0.3C-71.1,350.6-71.7,350.8-71.7,352.1z"/>
				<path id="Path_4_" d="M-49.4,350.3v0.3c-1,0-4,3.4-5.4,4.8l-2.9,3.3v5.4c0,1.3,0.7,1.5,1.5,1.5v0.3h-6.4v-0.3
					c0.8,0,1.5-0.2,1.5-1.5v-4.4l-6.1-7.4c0,0-1.3-1.6-2-1.6v-0.3h6.3v0.3c-1,0-1,0.3-0.6,0.8l5.7,7l2.6-2.9c1.8-2,3.3-4.9,0.3-4.9
					v-0.3L-49.4,350.3L-49.4,350.3z"/>
			</g>
			<g id="Group_1_" transform="translate(31.550296, 52.825397)">
				<path id="Shape_3_" d="M-214.8,360.1l-3-3.9c-0.2,0-0.5,0-0.8,0v3.9h-1.7v-8.8h1.6c1.5,0,4.4,0,4.4,2.5c0,1.3-0.9,2-1.9,2.2
					l3.2,4.1L-214.8,360.1L-214.8,360.1z M-215.9,353.7c0-1.9-1.8-1.9-1.8-1.9h-0.9v3.7h0.9c0.2,0,0.6,0,1.1-0.2l0,0
					C-216.2,355.1-215.9,354.6-215.9,353.7z"/>
				<path id="Shape_4_" d="M-203.8,355.6c0,3.2-2,4.6-4.5,4.6s-4.5-1.5-4.5-4.6s2-4.6,4.5-4.6S-203.8,352.5-203.8,355.6z
					 M-205.6,355.6c0-2.8-1.1-4-2.8-4c-1.6,0-2.8,1.1-2.8,4s1.1,4,2.8,4S-205.6,358.5-205.6,355.6z"/>
				<path id="Shape_5_" d="M-194,355.6c0,3.2-2,4.6-4.5,4.6s-4.5-1.5-4.5-4.6s2-4.6,4.5-4.6S-194,352.5-194,355.6z M-195.7,355.6
					c0-2.8-1.1-4-2.8-4c-1.6,0-2.8,1.1-2.8,4s1.1,4,2.8,4C-196.9,359.6-195.7,358.5-195.7,355.6z"/>
				<polygon id="Path_5_" points="-191.4,351.8 -191.4,355 -187.7,355 -187.7,355.7 -191.4,355.7 -191.4,359.9 -193.1,359.9 
					-193.1,351.1 -187.1,351.1 -187.1,351.7 -191.4,351.7 				"/>
				<polygon id="Path_6_" points="-184.5,360.1 -186,360.1 -186,351.2 -184.5,351.2 				"/>
				<polygon id="Path_7_" points="-176.1,351.2 -176.1,360.1 -182.8,354.1 -182.8,360.1 -183.5,360.1 -183.5,351.2 -176.8,357.2 
					-176.8,351.2 				"/>
				<path id="Path_8_" d="M-168.3,355.8h1.4v2.6c0,0.1-0.1,0.2-0.3,0.4c-0.5,0.6-1.6,1.3-3.4,1.3c-2.9,0-4.5-2-4.5-4.6
					s1.7-4.6,4.5-4.6c2.7,0,3.8,1.7,3.9,1.9l-0.3,0.6c-2.9-3.4-6.3-1.1-6.3,2.2c0,2.9,2.6,5,5.2,3.2v-3.1h-0.2V355.8z"/>
				<path id="Shape_6_" d="M-153.5,358.8L-153.5,358.8c-0.1,0.2-0.1,0.4-0.1,0.4c-0.1,0.2-0.3,0.4-0.5,0.7c-0.3,0.2-0.9,0.3-1.3,0.3
					c-0.9,0-1.6-0.2-2.4-1c-0.3,0.3-0.8,0.7-1.2,0.8c-0.4,0.1-0.9,0.2-1.4,0.2c-0.3,0-0.6,0-1.1-0.2c-0.3-0.1-0.6-0.3-1-0.6
					c-0.2-0.2-0.4-0.4-0.6-0.8c-0.2-0.3-0.2-0.7-0.2-1c0-0.6,0.2-1,0.5-1.5c0.3-0.3,0.8-0.8,1.6-1.2c-0.5-0.7-0.8-1.3-0.8-1.9
					c0-0.4,0.2-0.9,0.6-1.3c0.4-0.3,1-0.6,1.6-0.6c0.5,0,1.1,0.1,1.5,0.4c0.4,0.2,0.6,0.7,0.6,1.1c0,0.3-0.2,0.7-0.5,1.1
					c-0.3,0.3-0.9,0.7-1.4,0.9c0.4,0.4,0.8,1,1.2,1.5c0.3,0.4,0.6,0.8,1,1.2l0.1,0.1c0.1-0.1,0.2-0.3,0.2-0.3
					c0.2-0.3,0.4-0.8,0.5-1.3l0,0c0-0.1,0.1-0.3,0.1-0.7V355h0.5v0.1c-0.1,0.6-0.2,1.5-0.6,2.3c-0.2,0.3-0.3,0.6-0.4,0.7
					c0.5,0.7,0.8,0.9,1,1c0.3,0.2,0.5,0.2,0.9,0.2s0.6-0.1,0.9-0.4c0,0,0.1-0.1,0.1-0.2v-0.1L-153.5,358.8z M-162.1,357.3
					c0,0.6,0.2,1,0.6,1.5c0.4,0.4,1,0.7,1.5,0.7s1-0.2,1.5-0.8c-0.4-0.7-0.9-1.2-1.3-1.8c-0.4-0.6-0.8-1-1.1-1.5
					c-0.4,0.2-0.6,0.4-0.9,0.8C-161.9,356.5-162.1,356.8-162.1,357.3z M-159.1,353.7c0.2-0.2,0.4-0.6,0.4-0.8c0.1-0.3,0-0.7-0.2-0.9
					c-0.2-0.2-0.4-0.3-0.6-0.3c-0.2,0-0.4,0-0.6,0.1l0,0c-0.2,0.1-0.4,0.4-0.4,0.7c0,0.3,0,0.6,0.2,0.9c0.1,0.3,0.3,0.7,0.6,0.9
					C-159.6,354-159.3,353.9-159.1,353.7z"/>
				<path id="Path_9_" d="M-143.6,356.7c0.2,0.3,0.3,0.7,0.3,1c0,0.8-0.3,1.3-1,1.8c-0.5,0.4-1.3,0.7-2.2,0.7c-0.3,0-0.5,0-0.8,0
					s-0.6-0.1-1-0.2s-0.8-0.4-1.1-0.9c-0.2-0.3-0.4-0.8-0.5-1.3h0.6c0,0.3,0.1,0.6,0.2,0.7c0.2,0.3,0.5,0.7,1,0.9
					c0.4,0.2,0.9,0.3,1.3,0.3s0.9-0.1,1.2-0.3c0.3-0.2,0.5-0.6,0.5-1s-0.2-0.8-0.8-1.1c-0.3-0.2-0.9-0.6-1.6-0.9s-1.3-0.7-1.6-0.9
					c-0.8-0.6-1.1-1.1-1.1-1.9c0-0.7,0.3-1.2,0.9-1.7c0.5-0.4,1.2-0.7,1.9-0.7l0,0c0.9,0,1.5,0.2,1.8,0.4s0.6,0.6,0.8,0.9
					c0.1,0.2,0.2,0.6,0.3,0.8h-0.6c-0.2-0.6-0.4-1-0.9-1.1c-0.4-0.2-1-0.3-1.4-0.3s-0.8,0.1-1.1,0.3c-0.3,0.2-0.5,0.6-0.5,0.9
					c0,0.2,0.1,0.4,0.3,0.7c0.3,0.3,1,0.7,2,1.2c0.8,0.3,1.2,0.7,1.4,0.8C-144.2,355.9-143.9,356.3-143.6,356.7z"/>
				<polygon id="Path_10_" points="-140.6,360.1 -142.1,360.1 -142.1,351.2 -140.6,351.2 				"/>
				<path id="Shape_7_" d="M-131.4,355.6c0,4.6-5.2,4.5-5.3,4.5h-3.1v-8.8h3.1C-136.4,351.2-131.4,350.9-131.4,355.6z M-133.3,355.6
					c0-3.7-3.2-3.7-3.2-3.7h-1.5v7.4h1.5C-136.5,359.3-133.3,359.4-133.3,355.6z"/>
				<polygon id="Path_11_" points="-128.7,360.1 -130.2,360.1 -130.2,351.2 -128.7,351.2 				"/>
				<polygon id="Path_12_" points="-120.3,351.2 -120.3,360.1 -127,354.1 -127,360.1 -127.7,360.1 -127.7,351.2 -121,357.2 
					-121,351.2 				"/>
				<path id="Path_13_" d="M-112.5,355.8h1.4v2.6c0,0.1-0.1,0.2-0.3,0.4c-0.5,0.6-1.6,1.3-3.4,1.3c-2.9,0-4.5-2-4.5-4.6
					s1.7-4.6,4.5-4.6c2.7,0,3.8,1.7,3.9,1.9l-0.3,0.6c-2.9-3.4-6.3-1.1-6.3,2.2c0,2.9,2.6,5,5.2,3.2v-3.1h-0.2V355.8z"/>
			</g>
		</g>
	</g>
</g>
</svg>
