<?xml version="1.0" encoding="UTF-8"?>
<svg width="302px" height="40px" viewBox="0 0 302 40" version="1.1" xmlns="http://www.w3.org/2000/svg" xmlns:xlink="http://www.w3.org/1999/xlink">
    <title>monarchy-brand-logo (horizontal)</title>
    <g id="Desktop" stroke="none" stroke-width="1" fill="none" fill-rule="evenodd">
        <g id="Home" transform="translate(-569.000000, -36.000000)" fill-rule="nonzero">
            <g id="Group" transform="translate(569.000000, 36.000000)">
                <g transform="translate(48.310000, 8.000000)" fill="#000000">
                    <path d="M36.12,3.18 L36.12,20.685 C36.12,23.04 37.35,23.01 38.355,23.01 L38.355,23.445 L28.965,23.445 L28.965,23.01 C30.03,23.01 31.11,22.92 31.11,20.745 L31.11,2.205 L19.17,23.25 L5.13,2.28 L5.13,17.34 C5.13,21.03 7.74,23.04 9.135,23.04 L9.135,23.475 L0.45,23.475 L0.45,23.04 C1.965,23.04 4.665,21 4.665,17.37 L4.665,3.045 C4.665,0.96 2.31,1.005 1.77,1.005 L1.77,0.465 L9.99,0.465 L21.705,17.82 L31.53,0.465 L38.37,0.465 L38.37,0.9 C35.955,0.885 36.12,2.265 36.12,3.18 Z" id="Path"></path>
                    <path d="M68.685,12 C68.685,19.845 62.82,23.775 54.195,23.775 C45.225,23.775 39.615,19.845 39.615,12 C39.615,5.67 44.28,0.225 54.195,0.225 C64.38,0.225 68.685,5.67 68.685,12 Z M63.075,11.85 C63.075,4.695 60.615,0.705 54.195,0.705 C47.58,0.705 45.225,4.635 45.225,11.85 C45.225,20.1 47.52,23.31 54.195,23.31 C61.185,23.31 63.075,19.47 63.075,11.85 Z" id="Shape"></path>
                    <path d="M100.98,0.435 L100.98,0.87 C99.57,0.9 96.825,2.82 96.855,6.375 L96.885,23.445 L94.365,23.445 L73.68,4.08 L73.71,17.655 C73.71,21.405 76.23,23.04 77.745,23.01 L77.745,23.445 L69.015,23.445 L69.015,23.01 C70.53,23.01 73.23,21.18 73.23,17.685 L73.2,3.645 C73.2,3.645 70.56,0.975 69.015,0.975 L69.015,0.435 L77.085,0.435 L96.42,18.48 L96.39,6.36 C96.39,2.745 93.78,0.885 92.265,0.885 L92.265,0.45 L100.98,0.45 L100.98,0.435 Z" id="Path"></path>
                    <path d="M129.96,23.055 L129.96,23.46 L121.23,23.46 L121.23,23.055 C122.715,23.055 122.835,22.23 121.635,20.28 L118.83,15.465 L106.455,15.465 C103.185,21.57 106.14,23.055 107.685,23.055 L107.685,23.46 L99.405,23.46 L99.405,23.055 C101.415,23.055 105.765,15.81 105.765,15.81 L113.925,0.435 L116.13,0.435 L126.555,19.02 C127.68,20.91 128.82,23.055 129.96,23.055 Z M118.59,15.03 L112.515,4.065 L106.755,15.03 L118.59,15.03 Z" id="Shape"></path>
                    <path d="M165.96,23.055 L165.96,23.46 L157.89,23.46 C155.85,20.94 152.7,15.87 150.675,12.495 L138.84,12.495 L138.84,20.745 C138.84,23.175 140.13,23.04 141.015,23.04 L141.015,23.445 L131.535,23.445 L131.535,23.04 C132.315,23.04 133.8,23.13 133.8,20.775 L133.8,3.15 C133.8,0.795 132.165,0.855 131.565,0.855 L131.565,0.45 L151.185,0.45 C153.135,0.45 160.38,0.165 160.38,6.435 C160.38,10.335 155.88,11.7 155.88,11.7 C158.49,15.735 161.58,21.615 164.88,22.875 C165.165,22.965 165.9,23.055 165.96,23.055 Z M154.785,6.42 C154.785,3.495 153.87,0.915 151.23,0.915 L140.085,0.915 C139.305,0.915 138.855,1.515 138.855,3.12 L138.855,12.09 L150.42,12.09 C150.405,12.09 154.785,12.255 154.785,6.42 Z" id="Shape"></path>
                    <path d="M190.62,14.58 L190.965,20.655 C190.965,20.655 189.42,23.745 178.08,23.745 C167.85,23.745 163.125,19.74 163.125,11.97 C163.125,1.14 173.67,0.225 178.08,0.225 C187.245,0.225 190.965,3.285 190.965,3.285 L190.59,9.39 L190.05,9.39 C189.96,4.575 182.265,0.66 178.08,0.66 C169.395,0.66 168.66,6.585 168.66,11.97 C168.66,18.21 170.01,23.28 178.08,23.28 C184.38,23.28 189.96,18.87 190.05,14.595 L190.62,14.595 L190.62,14.58 Z" id="Path"></path>
                    <path d="M220.08,3.12 L220.08,20.79 C220.08,22.74 221.055,23.055 222.285,23.055 L222.285,23.46 L212.895,23.46 L212.895,23.055 C214.125,23.055 215.1,22.74 215.1,20.79 L215.1,12.15 L199.725,12.15 L199.725,20.775 C199.725,22.725 200.7,23.04 201.93,23.04 L201.93,23.445 L192.54,23.445 L192.54,23.04 C193.77,23.04 194.745,22.725 194.745,20.775 L194.745,3.12 C194.745,1.14 193.77,0.855 192.54,0.855 L192.54,0.45 L201.93,0.45 L201.93,0.855 C200.61,0.855 199.725,1.17 199.725,3.12 L199.725,11.715 L215.1,11.715 L215.1,3.12 C215.1,1.14 214.125,0.855 212.895,0.855 L212.895,0.45 L222.285,0.45 L222.285,0.855 C220.965,0.855 220.08,1.17 220.08,3.12 Z" id="Path"></path>
                    <path d="M253.05,0.435 L253.05,0.84 C251.595,0.84 247.005,5.79 245.055,7.965 L240.735,12.81 L240.705,20.775 C240.705,22.725 241.74,23.04 242.91,23.04 L242.91,23.445 L233.52,23.445 L233.52,23.04 C234.69,23.04 235.725,22.725 235.725,20.775 L235.725,14.325 L226.785,3.3 C226.785,3.3 224.895,0.87 223.86,0.87 L223.86,0.435 L233.085,0.435 L233.085,0.84 C231.51,0.84 231.57,1.305 232.2,2.04 L240.54,12.375 L244.41,8.025 C247.125,4.965 249.42,0.84 244.92,0.84 L244.92,0.435 L253.05,0.435 L253.05,0.435 Z" id="Path"></path>
                </g>
                <g id="XMLID_4_" fill="#CB9E38">
                    <path d="M10.7384615,26.7692308 L21.3384615,26.7692308 L19.2153846,17.1846154 C18.9538462,15.9692308 20.2307692,15 21.3384615,15.5692308 L21.3384615,15.5692308 L16.0307692,0.6 L10.7230769,15.5692308 L10.7230769,15.5692308 C11.8307692,14.9846154 13.1076923,15.9538462 12.8461538,17.1846154 L10.7384615,26.7692308 Z" id="XMLID_10_"></path>
                    <path d="M0.461538462,31.6923077 L9.75384615,31.6923077 C11.5846154,31.6923077 13.2461538,32.7538462 14.0153846,34.4153846 L16.3384615,39.3846154 L18.2461538,34.6461538 C18.9692308,32.8615385 20.6923077,31.6923077 22.6153846,31.6923077 L31.6307692,31.6923077 L31.6307692,28.4461538 L0.446153846,28.4461538 L0.446153846,31.6923077 L0.461538462,31.6923077 Z" id="XMLID_9_"></path>
                    <path d="M31.6307692,3.86153846 L27.1230769,16.6 L27.1230769,16.6 C28.0615385,16.1076923 29.1538462,16.9230769 28.9230769,17.9692308 L28.5538462,19.8 L28.5538462,19.8 L28.5538462,19.8153846 C27.9692308,22.6615385 26.2,25.1076923 23.6769231,26.5538462 L23.3230769,26.7538462 L31.6461538,26.7538462 L31.6461538,3.86153846 L31.6307692,3.86153846 Z" id="XMLID_8_"></path>
                    <path d="M8.43076923,26.5692308 C5.90769231,25.1230769 4.13846154,22.6769231 3.55384615,19.8307692 L3.55384615,19.8153846 L3.55384615,19.8153846 L3.18461538,17.9846154 C2.95384615,16.9384615 4.04615385,16.1230769 4.98461538,16.6153846 L4.98461538,16.6153846 L0.476923077,3.87692308 L0.476923077,26.7692308 L8.8,26.7692308 L8.43076923,26.5692308 Z" id="XMLID_7_"></path>
                </g>
            </g>
        </g>
    </g>
</svg>